# xmcd CD database file
#
# Track frame offsets:
#	150
#	18807
#	39347
#	63792
#	79135
#	95532
#	112282
#	134787
#	155357
#	167450
#	189500
#	203712
#	221105
#	240175
#	251160
#	274490
#	292047
#	311852
#	324575
#
# Disc length: 4554 seconds
#
# Revision: 0
# Processed by: cddbd v1.5.2PL0 Copyright (c) Steve Scherf et al.
# Submitted via: CDex 1.70beta2
#
DISCID=1911c813
DTITLE=Lonnie Mack - Strike Like Lightning Plus
DYEAR=1995
DGENRE=Blues
TTITLE0=Hound Dog Man
TTITLE1=Satisfy Suzie
TTITLE2=Stop
TTITLE3=Long Way From Memphis
TTITLE4=Double Whammy
TTITLE5=Strike Like Lightning
TTITLE6=Falling Back in Love with You
TTITLE7=If You Have to Know
TTITLE8=You Ain't Got Me
TTITLE9=Oreo Cookies Blues
TTITLE10=Me And My Car
TTITLE11=Rock And Roll Bones
TTITLE12=Tough on Me, Tough on You
TTITLE13=Camp Washington Chili
TTITLE14=Cincinnati Jail
TTITLE15=Rock People
TTITLE16=Ain't Nobody
TTITLE17=Back on the Road Again
TTITLE18=A Song I Haven't Sung
EXTD=YEAR: 1995
EXTT0=
EXTT1=
EXTT2=
EXTT3=
EXTT4=
EXTT5=
EXTT6=
EXTT7=
EXTT8=
EXTT9=
EXTT10=
EXTT11=
EXTT12=
EXTT13=
EXTT14=
EXTT15=
EXTT16=
EXTT17=
EXTT18=
PLAYORDER=
